<svg width="162" height="184" viewBox="0 0 162 184" fill="none" xmlns="http://www.w3.org/2000/svg">
<path opacity="0.996" d="M35.0406 128.384C34.8885 128.473 34.7157 128.519 34.5398 128.52C34.3639 128.52 34.191 128.474 34.0386 128.386C33.8862 128.298 33.7597 128.171 33.6719 128.019C33.5841 127.867 33.5381 127.694 33.5386 127.518L33.7108 59.9689C33.7107 59.7933 33.7569 59.6209 33.8446 59.4689C33.9324 59.3169 34.0586 59.1907 34.2106 59.1029C34.3626 59.0152 34.5351 58.969 34.7106 58.9691C34.8861 58.9692 35.0585 59.0155 35.2105 59.1033L93.4298 92.6909C93.5819 92.7785 93.7083 92.9045 93.7962 93.0565C93.8841 93.2084 93.9305 93.3808 93.9307 93.5563C93.9308 93.7318 93.8847 93.9043 93.797 94.0563C93.7094 94.2084 93.5832 94.3347 93.4312 94.4225L35.0406 128.384Z" fill="#213C5C"/>
<path opacity="0.996" d="M97.8188 164.602C97.6667 164.69 97.4939 164.737 97.318 164.737C97.1421 164.738 96.9692 164.692 96.8168 164.604C96.6644 164.516 96.5379 164.389 96.4501 164.237C96.3623 164.084 96.3163 163.911 96.3168 163.735L96.489 96.1866C96.4889 96.0111 96.5351 95.8387 96.6228 95.6867C96.7106 95.5347 96.8368 95.4084 96.9888 95.3207C97.1408 95.233 97.3133 95.1868 97.4888 95.1869C97.6643 95.1869 97.8367 95.2332 97.9887 95.3211L156.208 128.909C156.36 128.996 156.487 129.122 156.574 129.274C156.662 129.426 156.709 129.599 156.709 129.774C156.709 129.95 156.663 130.122 156.575 130.274C156.488 130.426 156.361 130.552 156.209 130.64L97.8188 164.602Z" fill="#8563EA"/>
<path opacity="0.996" d="M94.2016 94.8832C94.3537 94.7947 94.5264 94.7479 94.7024 94.7476C94.8783 94.7473 95.0512 94.7934 95.2036 94.8814C95.356 94.9693 95.4825 95.0959 95.5703 95.2483C95.6581 95.4008 95.7041 95.5737 95.7036 95.7497L95.5314 163.298C95.5315 163.474 95.4853 163.646 95.3976 163.798C95.3098 163.95 95.1836 164.077 95.0316 164.164C94.8795 164.252 94.7071 164.298 94.5316 164.298C94.3561 164.298 94.1837 164.252 94.0317 164.164L35.8124 130.576C35.6603 130.489 35.5339 130.363 35.446 130.211C35.358 130.059 35.3117 129.887 35.3115 129.711C35.3114 129.536 35.3575 129.363 35.4451 129.211C35.5328 129.059 35.659 128.933 35.811 128.845L94.2016 94.8832Z" fill="#FDF002"/>
<path opacity="0.996" d="M33.6005 59.5011C33.6 59.3252 33.646 59.1522 33.7337 58.9997C33.8215 58.8471 33.948 58.7205 34.1004 58.6325C34.2528 58.5445 34.4257 58.4983 34.6016 58.4986C34.7776 58.4989 34.9504 58.5456 35.1025 58.634L93.5148 92.5833C93.6668 92.6711 93.7931 92.7974 93.8808 92.9494C93.9685 93.1015 94.0147 93.2739 94.0146 93.4495C94.0145 93.6251 93.9682 93.7975 93.8803 93.9495C93.7924 94.1014 93.6661 94.2276 93.5139 94.3152L35.2937 127.927C35.1418 128.015 34.9694 128.061 34.7938 128.061C34.6183 128.062 34.4458 128.015 34.2937 127.928C34.1416 127.84 34.0153 127.714 33.9275 127.562C33.8397 127.41 33.7935 127.237 33.7935 127.062L33.6005 59.5011Z" fill="#FEF102"/>
<path opacity="0.996" d="M96.3771 23.2585C96.3766 23.0825 96.4226 22.9095 96.5103 22.757C96.5981 22.6045 96.7246 22.4778 96.877 22.3898C97.0294 22.3019 97.2023 22.2557 97.3783 22.2559C97.5542 22.2562 97.727 22.3029 97.8791 22.3913L156.291 56.3406C156.443 56.4284 156.57 56.5547 156.657 56.7067C156.745 56.8588 156.791 57.0313 156.791 57.2068C156.791 57.3824 156.745 57.5548 156.657 57.7068C156.569 57.8587 156.443 57.9849 156.291 58.0725L98.0703 91.6844C97.9184 91.7723 97.746 91.8187 97.5704 91.8188C97.3949 91.8189 97.2224 91.7728 97.0703 91.6851C96.9182 91.5974 96.7919 91.4712 96.7041 91.3192C96.6163 91.1672 96.5701 90.9947 96.5701 90.8192L96.3771 23.2585Z" fill="#8563EA"/>
<path opacity="0.996" d="M95.7866 91.2554C95.7871 91.4314 95.7411 91.6044 95.6534 91.7569C95.5656 91.9094 95.4391 92.0361 95.2867 92.1241C95.1343 92.2121 94.9614 92.2583 94.7854 92.258C94.6095 92.2577 94.4367 92.211 94.2846 92.1226L35.8723 58.1733C35.7202 58.0855 35.594 57.9592 35.5063 57.8072C35.4185 57.6551 35.3724 57.4826 35.3725 57.3071C35.3726 57.1315 35.4189 56.9591 35.5068 56.8071C35.5947 56.6552 35.721 56.529 35.8732 56.4414L94.0933 22.8295C94.2453 22.7416 94.4177 22.6953 94.5933 22.6951C94.7688 22.695 94.9413 22.7411 95.0934 22.8288C95.2455 22.9165 95.3718 23.0427 95.4596 23.1947C95.5474 23.3468 95.5936 23.5192 95.5936 23.6948L95.7866 91.2554Z" fill="#FEF102"/>
</svg>
