<svg width="215" height="245" viewBox="0 0 215 245" fill="none" xmlns="http://www.w3.org/2000/svg">
<path opacity="0.996" d="M46.6719 171.001C46.4694 171.119 46.2393 171.181 46.005 171.181C45.7706 171.182 45.5403 171.12 45.3373 171.003C45.1344 170.886 44.9659 170.717 44.8489 170.514C44.732 170.311 44.6707 170.081 44.6714 169.847L44.9007 79.8755C44.9006 79.6417 44.9621 79.412 45.079 79.2096C45.1959 79.0071 45.364 78.839 45.5665 78.7221C45.769 78.6052 45.9987 78.5438 46.2325 78.5439C46.4662 78.544 46.6959 78.6056 46.8983 78.7226L124.443 123.459C124.646 123.576 124.814 123.744 124.931 123.946C125.048 124.149 125.11 124.378 125.11 124.612C125.11 124.846 125.049 125.075 124.932 125.278C124.815 125.481 124.647 125.649 124.445 125.766L46.6719 171.001Z" fill="#00A2E8"/>
<path opacity="0.996" d="M130.289 219.241C130.086 219.359 129.856 219.421 129.622 219.422C129.388 219.422 129.157 219.361 128.954 219.244C128.751 219.127 128.583 218.958 128.466 218.755C128.349 218.552 128.288 218.321 128.288 218.087L128.518 128.116C128.518 127.882 128.579 127.653 128.696 127.45C128.813 127.248 128.981 127.079 129.183 126.963C129.386 126.846 129.616 126.784 129.849 126.784C130.083 126.784 130.313 126.846 130.515 126.963L208.06 171.7C208.263 171.816 208.431 171.984 208.548 172.187C208.665 172.389 208.727 172.619 208.727 172.852C208.727 173.086 208.666 173.316 208.549 173.518C208.432 173.721 208.264 173.889 208.062 174.006L130.289 219.241Z" fill="#FEF102"/>
<path opacity="0.996" d="M125.471 126.38C125.674 126.262 125.904 126.2 126.138 126.199C126.372 126.199 126.603 126.26 126.806 126.377C127.009 126.495 127.177 126.663 127.294 126.866C127.411 127.069 127.472 127.3 127.472 127.534L127.242 217.505C127.242 217.739 127.181 217.969 127.064 218.171C126.947 218.374 126.779 218.542 126.577 218.659C126.374 218.775 126.144 218.837 125.911 218.837C125.677 218.837 125.447 218.775 125.245 218.658L47.7 173.921C47.4974 173.805 47.3291 173.637 47.212 173.434C47.0949 173.232 47.0331 173.002 47.0329 172.769C47.0327 172.535 47.0941 172.305 47.2109 172.103C47.3277 171.9 47.4957 171.732 47.6981 171.615L125.471 126.38Z" fill="#00A2E8"/>
<path opacity="0.996" d="M44.754 79.2522C44.7533 79.0178 44.8145 78.7874 44.9314 78.5842C45.0483 78.3811 45.2168 78.2124 45.4197 78.0952C45.6227 77.978 45.853 77.9165 46.0874 77.9168C46.3218 77.9172 46.552 77.9794 46.7546 78.0972L124.556 123.316C124.759 123.433 124.927 123.601 125.044 123.803C125.161 124.006 125.222 124.236 125.222 124.469C125.222 124.703 125.16 124.933 125.043 125.135C124.926 125.338 124.758 125.506 124.555 125.622L47.0093 170.392C46.8069 170.509 46.5772 170.57 46.3434 170.571C46.1096 170.571 45.8798 170.509 45.6773 170.392C45.4747 170.276 45.3065 170.108 45.1895 169.905C45.0726 169.703 45.011 169.473 45.011 169.239L44.754 79.2522Z" fill="#00A2E8"/>
<path opacity="0.996" d="M128.369 30.9787C128.368 30.7444 128.43 30.514 128.546 30.3108C128.663 30.1076 128.832 29.939 129.035 29.8218C129.238 29.7046 129.468 29.6431 129.702 29.6434C129.937 29.6438 130.167 29.706 130.37 29.8238L208.171 75.0423C208.374 75.1592 208.542 75.3274 208.659 75.5299C208.776 75.7324 208.837 75.9622 208.837 76.196C208.837 76.4298 208.775 76.6595 208.658 76.8619C208.541 77.0643 208.373 77.2323 208.17 77.349L130.624 122.118C130.422 122.235 130.192 122.297 129.958 122.297C129.725 122.297 129.495 122.236 129.292 122.119C129.09 122.002 128.921 121.834 128.805 121.632C128.688 121.429 128.626 121.199 128.626 120.966L128.369 30.9787Z" fill="#FEF102"/>
<path opacity="0.996" d="M127.582 121.547C127.583 121.781 127.522 122.012 127.405 122.215C127.288 122.418 127.12 122.587 126.917 122.704C126.714 122.821 126.483 122.883 126.249 122.882C126.015 122.882 125.784 122.82 125.582 122.702L47.7801 77.4834C47.5776 77.3664 47.4094 77.1983 47.2926 76.9957C47.1757 76.7932 47.1142 76.5635 47.1144 76.3296C47.1145 76.0958 47.1762 75.8661 47.2933 75.6637C47.4103 75.4613 47.5786 75.2933 47.7812 75.1766L125.327 30.4075C125.53 30.2904 125.759 30.2287 125.993 30.2285C126.227 30.2283 126.457 30.2898 126.659 30.4066C126.862 30.5234 127.03 30.6915 127.147 30.894C127.264 31.0964 127.325 31.3262 127.325 31.56L127.582 121.547Z" fill="#00A2E8"/>
</svg>
